<svg xmlns="http://www.w3.org/2000/svg" viewBox="0 0 64 64" width="64" height="64">
  <rect x="2" y="2" width="60" height="60" rx="14" fill="#7289ff"/>
  <g opacity="0.55">
    <g stroke="#ffffff" stroke-width="2.0" stroke-linecap="round" opacity="0.85">
      <line x1="15" y1="16" x2="21" y2="32"/>
      <line x1="21" y1="32" x2="11" y2="47"/>
      <line x1="15" y1="16" x2="11" y2="47"/>
      <line x1="47" y1="12" x2="41" y2="21"/>
      <line x1="41" y1="21" x2="54" y2="41"/>
      <line x1="54" y1="41" x2="43" y2="54"/>
      <line x1="21" y1="32" x2="41" y2="21"/>
      <line x1="15" y1="16" x2="47" y2="12"/>
      <line x1="11" y1="47" x2="43" y2="54"/>
      <line x1="21" y1="32" x2="54" y2="41"/>
      <line x1="47" y1="12" x2="54" y2="41"/>
      <line x1="15" y1="16" x2="41" y2="21"/>
      <line x1="11" y1="47" x2="54" y2="41"/>
    </g>
    <g fill="#ffffff">
      <circle cx="15" cy="16" r="3.4"/>
      <circle cx="21" cy="32" r="3.4"/>
      <circle cx="11" cy="47" r="3.4"/>
      <circle cx="47" cy="12" r="3.4"/>
      <circle cx="41" cy="21" r="3.4"/>
      <circle cx="54" cy="41" r="3.4"/>
      <circle cx="43" cy="54" r="3.4"/>
    </g>
  </g>
  <text x="32" y="33" text-anchor="middle" dominant-baseline="central"
        font-family="Helvetica, Arial, sans-serif" font-weight="800" font-size="42"
        fill="#ffffff">W</text>
  <circle cx="11" cy="47" r="4.2" fill="#002FA7"/>
  <circle cx="47" cy="12" r="4.2" fill="#002FA7"/>
  <circle cx="43" cy="54" r="4.2" fill="#002FA7"/>
</svg>
